<svg version="1.1" id="Layer_1" focusable="false" xmlns="http://www.w3.org/2000/svg" xmlns:xlink="http://www.w3.org/1999/xlink" x="0px" y="0px" viewBox="0 0 327 64" style="enable-background:new 0 0 327 64;" xml:space="preserve">
 <style type="text/css">
  .st0{fill-rule:evenodd;clip-rule:evenodd;fill:#3D3D3D;}
	.st1{fill-rule:evenodd;clip-rule:evenodd;fill:#E51B24;}
 </style>
 <g>
  <path class="st0" d="M323.9,33c0.4,0,0.7-0.2,0.7-0.5c0-0.4-0.2-0.6-0.7-0.6h-0.8V33H323.9z M322.4,31.3h1.5c0.7,0,1.3,0.4,1.3,1.1
		c0,0.6-0.3,0.9-0.8,1l0.9,1.3h-0.8l-0.8-1.2h-0.7v1.2h-0.6V31.3L322.4,31.3z M326.6,33.1L326.6,33.1c0-1.6-1.2-3-2.9-3
		c-1.6,0-2.9,1.4-2.9,3v0c0,1.6,1.2,2.9,2.9,2.9C325.4,36,326.6,34.7,326.6,33.1z M320.4,33.1L320.4,33.1c0-1.8,1.5-3.3,3.3-3.3
		c1.9,0,3.3,1.5,3.3,3.3v0c0,1.8-1.5,3.3-3.3,3.3C321.9,36.4,320.4,34.9,320.4,33.1C320.4,33.1,320.4,33.1,320.4,33.1z M307.2,40.5
		l10.5-10.7H312l-12.3,12.8V21.3h-4.4v33.3h4.4v-6.5l4.4-4.4l8.4,10.9h5.3L307.2,40.5L307.2,40.5z M281.5,29.3
		c-3.6,0-6.1,1.6-7.8,3.7v-3.2h-4.4v24.8h4.4V40.5c0-4.3,2.9-7.1,6.8-7.1c4,0,6.2,2.5,6.2,6.8v14.4h4.4V39.3c0-2.9-0.9-5.4-2.5-7.2
		C286.9,30.3,284.5,29.3,281.5,29.3L281.5,29.3z M260.7,45.4c0,1.8-0.8,3.2-2.2,4.3c-1.4,1.1-3.3,1.7-5.4,1.7c-1.5,0-3-0.4-4-1.2
		c-1-0.8-1.6-1.8-1.6-3.2v-0.1c0-2.6,2.2-4.4,6.6-4.4c2.7,0,4.9,0.4,6.6,0.9L260.7,45.4L260.7,45.4z M254.3,29.4
		c-3.6,0-6.2,0.9-8.9,2.1l-0.4,0.2l1.4,3.7l0.4-0.2c2.2-1,4.3-1.7,7.1-1.7c2.2,0,3.8,0.5,4.9,1.5c1.1,1,1.7,2.5,1.7,4.5v0.2
		c-2.2-0.6-4.6-0.9-6.9-0.9c-3.1,0-5.7,0.7-7.6,2.1c-1.9,1.4-3,3.5-3,6.2v0.1c0,2.6,1.2,4.6,3,5.9c1.8,1.3,4.1,2,6.4,2h0
		c3.8,0,6.4-1.5,8.2-3.4v2.8h4.4V39.5c0-3.1-0.9-5.6-2.6-7.3C260.6,30.4,257.8,29.4,254.3,29.4L254.3,29.4z M236.3,45.1
		c0,3.3-2.7,5.3-7.5,5.4h-10.5V39.9h9.8c2.8,0,4.9,0.5,6.2,1.4C235.6,42.1,236.3,43.4,236.3,45.1L236.3,45.1z M218.3,25.5h9.4
		c4.5,0,6.7,1.9,6.8,4.8v0.1c0,1.8-0.7,3.1-1.9,4c-1.2,0.9-3,1.4-5.1,1.4h-9.2C218.3,35.8,218.3,25.5,218.3,25.5z M234.6,37.3
		c2.3-1.3,4.4-3.5,4.4-7.4v-0.1c0-2.2-0.8-4-2.2-5.5c-2-1.9-5-3-8.8-3h-14.2v33.3h14.8c3.6,0,6.6-0.8,8.8-2.4
		c2.2-1.6,3.4-3.9,3.4-6.8v-0.1C240.8,40.9,238,38.6,234.6,37.3L234.6,37.3z M192.3,54.6h-8.7V29.8h8.7v3.5c1.6-2.1,3.9-3.9,7.4-3.9
		c5.2,0,8.4,3.5,8.4,9.1v16.1h-8.7V41.3c0-2.8-1.4-4.2-3.5-4.2c-2.1,0-3.6,1.5-3.6,4.2C192.3,41.3,192.3,54.6,192.3,54.6z
		 M167.1,36.7c-3.2,0-5.1,2.4-5.1,5.5c0,3.1,2.2,5.6,5.2,5.6c3.2,0,5.2-2.4,5.2-5.5C172.3,39.1,170.1,36.7,167.1,36.7z M167.1,55.1
		c-7.9,0-13.6-5.7-13.6-12.8c0-7.1,5.7-12.9,13.7-12.9c7.9,0,13.6,5.7,13.6,12.8S175,55.1,167.1,55.1L167.1,55.1z M141.7,27h8.7
		v-5.6h-8.7L141.7,27L141.7,27z M141.7,54.6h8.7V29.8h-8.7L141.7,54.6L141.7,54.6z M121.3,54.6h-8.7V29.8h8.7v3.5
		c1.6-2.1,3.9-3.9,7.4-3.9c5.2,0,8.4,3.5,8.4,9.1v16.1h-8.7V41.3c0-2.8-1.4-4.2-3.5-4.2c-2.1,0-3.6,1.5-3.6,4.2L121.3,54.6
		L121.3,54.6z M107.9,40.2c0,10.4-5.9,14.9-14.9,14.9s-14.8-4.6-14.8-14.7V21.3h9v19c0,4.6,2.3,6.8,5.9,6.8s5.9-2.1,5.9-6.6V21.3h9
		L107.9,40.2L107.9,40.2z">
  </path>
  <path class="st1" d="M0,0v40.1C0,58.3,11,61,14.6,61.6c3.8,0.6,8.6-1.2,10.7-4.3c-2.6-1.6-2.9-6.9-2.9-13.1V20.4
		C22.4,5.1,11.4,0,0,0 M51.5,16.8v23c0,18.9-17.2,26.1-33,23.8c5.5-1.4,10.6-5.1,10.6-15.1V37.9C29.2,28,32.3,18.4,51.5,16.8">
  </path>
 </g>
</svg>